<svg height="480pt" viewBox="-56 0 480 480" width="480pt" xmlns="http://www.w3.org/2000/svg"><path d="m360 104v336c0 17.671875-14.328125 32-32 32h-288c-17.65625-.042969-31.957031-14.34375-32-32v-400c0-17.671875 14.328125-32 32-32h224v80c.027344 8.824219 7.175781 15.972656 16 16zm0 0" fill="#96c8ef"/><path d="m360 136.71875v303.28125c0 17.671875-14.328125 32-32 32h-288c-13.65625-.007812-25.800781-8.683594-30.238281-21.601562 113.039062-51.359376 274.796875-149.679688 350.238281-313.679688zm0 0" fill="#78b9eb"/><path d="m264 88c0 8.835938 7.164062 16 16 16h80l-96-96zm0 0" fill="#3d9ae2"/><path d="m270.480469 256c-2.246094 12.136719-7.015625 23.664062-14 33.839844l23.679687 23.679687-22.640625 22.640625-23.679687-23.679687c-10.175782 6.984375-21.703125 11.753906-33.839844 14v33.519531h-32v-33.519531c-12.136719-2.246094-23.664062-7.015625-33.839844-14l-23.679687 23.679687-22.640625-22.640625 23.679687-23.679687c-6.984375-10.175782-11.753906-21.703125-14-33.839844h-33.519531v-32h33.519531c2.246094-12.136719 7.015625-23.664062 14-33.839844l-23.679687-23.679687 22.640625-22.640625 23.679687 23.679687c10.175782-6.984375 21.703125-11.753906 33.839844-14v-33.519531h32v33.519531c12.136719 2.246094 23.664062 7.015625 33.839844 14l23.679687-23.679687 22.640625 22.640625-23.679687 23.679687c6.984375 10.175782 11.753906 21.703125 14 33.839844h33.519531v32zm0 0" fill="#ffa733"/><path d="m240 240c0 30.929688-25.070312 56-56 56s-56-25.070312-56-56 25.070312-56 56-56 56 25.070312 56 56zm0 0" fill="#e6e7e8"/><path d="m200 240c0 8.835938-7.164062 16-16 16s-16-7.164062-16-16 7.164062-16 16-16 16 7.164062 16 16zm0 0" fill="#ff6243"/><path d="m367.894531 103.496094c-.039062-.699219-.175781-1.394532-.40625-2.054688-.089843-.257812-.152343-.503906-.265625-.753906-.386718-.871094-.925781-1.664062-1.597656-2.34375l-96-96c-.683594-.671875-1.480469-1.214844-2.351562-1.601562-.242188-.109376-.480469-.175782-.730469-.261719-.679688-.234375-1.386719-.375-2.101563-.417969-.128906.0273438-.28125-.0625-.441406-.0625h-224c-22.082031.0273438-39.9726562 17.917969-40 40v400c.0273438 22.082031 17.917969 39.972656 40 40h288c22.082031-.027344 39.972656-17.917969 40-40v-336c0-.175781-.089844-.328125-.105469-.503906zm-27.207031-7.496094h-60.6875c-4.417969 0-8-3.582031-8-8v-60.6875zm-12.6875 368h-288c-13.253906 0-24-10.746094-24-24v-400c0-13.253906 10.746094-24 24-24h216v72c0 13.253906 10.746094 24 24 24h72v328c0 13.253906-10.746094 24-24 24zm0 0"/><path d="m304 216h-27.097656c-2.21875-8.691406-5.660156-17.023438-10.222656-24.742188l19.144531-19.136718c3.121093-3.125 3.121093-8.1875 0-11.3125l-22.625-22.632813c-3.125-3.121093-8.1875-3.121093-11.3125 0l-19.132813 19.136719c-7.726562-4.5625-16.0625-8-24.753906-10.214844v-27.097656c0-4.417969-3.582031-8-8-8h-32c-4.417969 0-8 3.582031-8 8v27.097656c-8.691406 2.214844-17.023438 5.652344-24.742188 10.214844l-19.136718-19.136719c-3.125-3.121093-8.1875-3.121093-11.3125 0l-22.632813 22.625c-3.121093 3.125-3.121093 8.1875 0 11.3125l19.144531 19.132813c-4.5625 7.726562-8.007812 16.058594-10.222656 24.753906h-27.097656c-4.417969 0-8 3.582031-8 8v32c0 4.417969 3.582031 8 8 8h27.097656c2.21875 8.691406 5.660156 17.023438 10.222656 24.742188l-19.144531 19.136718c-3.121093 3.125-3.121093 8.1875 0 11.3125l22.625 22.632813c3.125 3.121093 8.1875 3.121093 11.3125 0l19.132813-19.136719c7.726562 4.5625 16.0625 8 24.753906 10.214844v27.097656c0 4.417969 3.582031 8 8 8h32c4.417969 0 8-3.582031 8-8v-27.097656c8.691406-2.214844 17.023438-5.652344 24.742188-10.214844l19.136718 19.136719c3.125 3.121093 8.1875 3.121093 11.3125 0l22.632813-22.625c3.121093-3.125 3.121093-8.1875 0-11.3125l-19.144531-19.132813c4.5625-7.726562 8.007812-16.058594 10.222656-24.753906h27.097656c4.417969 0 8-3.582031 8-8v-32c0-4.417969-3.582031-8-8-8zm-8 32h-25.519531c-3.863281-.003906-7.171875 2.753906-7.871094 6.550781-2.007813 11.039063-6.339844 21.527344-12.714844 30.761719-2.183593 3.179688-1.792969 7.464844.9375 10.191406l18.023438 18.03125-11.320313 11.3125-18.023437-18.015625c-2.726563-2.730469-7.011719-3.121093-10.191407-.9375-9.238281 6.371094-19.726562 10.707031-30.769531 12.714844-3.796875.699219-6.554687 4.007813-6.550781 7.871094v25.519531h-16v-25.519531c.003906-3.863281-2.753906-7.171875-6.550781-7.871094-11.042969-2.007813-21.53125-6.34375-30.769531-12.714844-3.179688-2.183593-7.464844-1.792969-10.191407.9375l-18.023437 18.015625-11.320313-11.3125 18.023438-18.03125c2.730469-2.726562 3.121093-7.011718.9375-10.191406-6.375-9.234375-10.707031-19.722656-12.714844-30.761719-.699219-3.796875-4.007813-6.554687-7.871094-6.550781h-25.519531v-16h25.519531c3.863281.003906 7.171875-2.753906 7.871094-6.550781 2.007813-11.039063 6.339844-21.527344 12.714844-30.761719 2.183593-3.179688 1.792969-7.464844-.9375-10.191406l-18.023438-18.03125 11.320313-11.3125 18.023437 18.015625c2.726563 2.730469 7.011719 3.121093 10.191407.9375 9.238281-6.371094 19.726562-10.707031 30.769531-12.714844 3.796875-.699219 6.554687-4.007813 6.550781-7.871094v-25.519531h16v25.519531c-.003906 3.863281 2.753906 7.171875 6.550781 7.871094 11.042969 2.007813 21.53125 6.34375 30.769531 12.714844 3.179688 2.183593 7.464844 1.792969 10.191407-.9375l18.023437-18.015625 11.320313 11.3125-18.023438 18.03125c-2.730469 2.726562-3.121093 7.011718-.9375 10.191406 6.375 9.234375 10.707031 19.722656 12.714844 30.761719.699219 3.796875 4.007813 6.554687 7.871094 6.550781h25.519531zm0 0"/><path d="m184 176c-35.347656 0-64 28.652344-64 64s28.652344 64 64 64 64-28.652344 64-64c-.039062-35.328125-28.671875-63.960938-64-64zm0 112c-26.507812 0-48-21.492188-48-48s21.492188-48 48-48 48 21.492188 48 48c-.027344 26.5-21.5 47.972656-48 48zm0 0"/><path d="m184 216c-13.253906 0-24 10.746094-24 24s10.746094 24 24 24 24-10.746094 24-24-10.746094-24-24-24zm0 32c-4.417969 0-8-3.582031-8-8s3.582031-8 8-8 8 3.582031 8 8-3.582031 8-8 8zm0 0"/><path d="m56 48h32v16h-32zm0 0"/><path d="m104 48h48v16h-48zm0 0"/><path d="m56 80h96v16h-96zm0 0"/><path d="m216 384h16v16h-16zm0 0"/><path d="m248 384h64v16h-64zm0 0"/><path d="m216 416h96v16h-96zm0 0"/></svg>